<svg width="48" height="48" viewBox="0 0 48 48" fill="none" xmlns="http://www.w3.org/2000/svg">
  <circle cx="24" cy="24" r="20" fill="#EBF5FF"/>
  <circle cx="24" cy="24" r="20" stroke="#2563EB" stroke-width="2"/>
  <path d="M24 12V36" stroke="#2563EB" stroke-width="2.5" stroke-linecap="round"/>
  <path d="M30 17H21C18.7909 17 17 18.7909 17 21C17 23.2091 18.7909 25 21 25H27C29.2091 25 31 26.7909 31 29C31 31.2091 29.2091 33 27 33H17" 
    stroke="#2563EB" stroke-width="2.5" stroke-linecap="round"/>
  <path d="M20 14H28" stroke="#2563EB" stroke-width="2.5" stroke-linecap="round"/>
  <path d="M20 34H28" stroke="#2563EB" stroke-width="2.5" stroke-linecap="round"/>
  <path fill-rule="evenodd" clip-rule="evenodd" d="M24 28C26.2091 28 28 26.2091 28 24C28 21.7909 26.2091 20 24 20C21.7909 20 20 21.7909 20 24C20 26.2091 21.7909 28 24 28Z" fill="white" stroke="#2563EB" stroke-width="1.5"/>
</svg> 